<svg xmlns="http://www.w3.org/2000/svg" xmlns:xlink="http://www.w3.org/1999/xlink"
  xml:space="preserve" version="1.1"
  style="shape-rendering:geometricPrecision;text-rendering:geometricPrecision;image-rendering:optimizeQuality;"
  viewBox="0 0 124.09 108.875" x="0px" y="0px" fill-rule="evenodd" clip-rule="evenodd"><defs><style type="text/css">
  </style></defs><g><path class="fil0" d="M18.65 10.15c-0.87,0.62 -1.68,1.29 -2.39,2.02 -6.4,6.53 -14.11,38.69 -15.15,43.95 -1.04,5.26 -2.84,19.9 2.99,26.22 3.29,3.56 8.18,7 12.17,2.91 3.99,-4.08 14.77,-19.97 19.76,-21.33 5.22,-1.42 46.81,-1.42 52.02,0 4.99,1.36 15.77,17.25 19.76,21.33 3.99,4.08 8.88,0.65 12.17,-2.91 5.84,-6.32 4.04,-20.96 2.99,-26.22 -1.04,-5.26 -8.75,-37.42 -15.15,-43.95 -0.71,-0.73 -1.52,-1.4 -2.39,-2.02 0.01,-0.3 -0.08,-2.48 -4.16,-5.38 -4.4,-3.13 -14.38,-4.9 -16.51,-4.76 -2.13,0.14 -4.04,2.54 -5.67,2.54 -1.63,0 -17.05,0 -17.05,0 0,0 -15.42,0 -17.05,0 -1.63,0 -3.54,-2.4 -5.67,-2.54 -2.13,-0.14 -12.11,1.63 -16.51,4.76 -4.08,2.9 -4.17,5.08 -4.16,5.38zm39.24 4.47c-1.32,-2.3 -0.54,-5.23 1.76,-6.56 2.3,-1.32 5.23,-0.54 6.56,1.76 1.32,2.3 0.54,5.23 -1.76,6.56 -2.3,1.32 -5.23,0.54 -6.56,-1.76zm45.07 5.28c1.3,0 2.49,0.53 3.34,1.38 0.85,0.85 1.38,2.04 1.38,3.34 0,1.3 -0.53,2.49 -1.38,3.34 -0.85,0.85 -2.04,1.38 -3.34,1.38 -1.3,0 -2.49,-0.53 -3.34,-1.38 -0.85,-0.85 -1.38,-2.04 -1.38,-3.34 0,-1.3 0.53,-2.49 1.38,-3.34 0.85,-0.85 2.04,-1.38 3.34,-1.38zm-8.53 8.16c1.3,0 2.49,0.53 3.34,1.38l0.02 0.03c0.84,0.85 1.36,2.02 1.36,3.32 0,1.3 -0.53,2.49 -1.38,3.34 -0.85,0.85 -2.04,1.38 -3.34,1.38 -1.3,0 -2.49,-0.53 -3.34,-1.38 -0.85,-0.85 -1.38,-2.04 -1.38,-3.34 0,-1.3 0.53,-2.49 1.38,-3.34 0.85,-0.86 2.04,-1.39 3.34,-1.39zm0 -16.96c1.3,0 2.49,0.53 3.34,1.38l0.02 0.03c0.84,0.85 1.36,2.02 1.36,3.32 0,1.3 -0.53,2.49 -1.38,3.34 -0.85,0.85 -2.04,1.38 -3.34,1.38 -1.3,0 -2.49,-0.53 -3.34,-1.38 -0.85,-0.85 -1.38,-2.04 -1.38,-3.34 0,-1.3 0.53,-2.49 1.38,-3.34 0.85,-0.86 2.04,-1.39 3.34,-1.39zm-8.71 8.39c1.3,0 2.49,0.53 3.34,1.38 0.85,0.85 1.38,2.04 1.38,3.34 0,1.3 -0.53,2.49 -1.38,3.34 -0.85,0.85 -2.04,1.38 -3.34,1.38 -1.3,0 -2.49,-0.53 -3.34,-1.38 -0.85,-0.85 -1.38,-2.04 -1.38,-3.34 0,-1.3 0.53,-2.49 1.38,-3.34 0.85,-0.85 2.04,-1.38 3.34,-1.38zm-14.53 1.36c0.9,0 1.71,0.37 2.3,0.96 0.59,0.59 0.96,1.41 0.96,2.3 0,0.9 -0.37,1.71 -0.96,2.3l-0.03 0.02c-0.59,0.57 -1.39,0.93 -2.28,0.93 -0.9,0 -1.71,-0.36 -2.3,-0.95 -0.59,-0.59 -0.95,-1.41 -0.95,-2.3 0,-0.9 0.37,-1.71 0.95,-2.3 0.59,-0.59 1.41,-0.96 2.3,-0.96zm1.58 1.68c-0.4,-0.4 -0.96,-0.65 -1.58,-0.65 -0.62,0 -1.17,0.25 -1.58,0.65 -0.4,0.4 -0.65,0.96 -0.65,1.58 0,0.62 0.25,1.17 0.65,1.58 0.4,0.4 0.96,0.65 1.58,0.65 0.61,0 1.16,-0.24 1.56,-0.63l0.02 -0.02c0.4,-0.4 0.65,-0.96 0.65,-1.58 0,-0.62 -0.25,-1.17 -0.65,-1.58zm-19.86 -1.68c0.9,0 1.71,0.37 2.3,0.96l0.02 0.03c0.57,0.59 0.93,1.39 0.93,2.28 0,0.9 -0.37,1.71 -0.95,2.3 -0.59,0.59 -1.41,0.96 -2.3,0.96 -0.9,0 -1.71,-0.37 -2.3,-0.95 -0.59,-0.59 -0.96,-1.41 -0.96,-2.3 0,-0.9 0.37,-1.71 0.96,-2.3 0.59,-0.59 1.41,-0.96 2.3,-0.96zm1.58 1.68c-0.4,-0.4 -0.96,-0.65 -1.58,-0.65 -0.62,0 -1.17,0.25 -1.58,0.65 -0.4,0.4 -0.65,0.96 -0.65,1.58 0,0.62 0.25,1.17 0.65,1.58 0.4,0.4 0.96,0.65 1.58,0.65 0.62,0 1.17,-0.25 1.58,-0.65 0.4,-0.4 0.65,-0.96 0.65,-1.58 0,-0.61 -0.24,-1.16 -0.63,-1.56l-0.02 -0.02zm17.02 24.58c-1.13,-1.96 -1.36,-4.18 -0.82,-6.2 0.54,-2.02 1.86,-3.84 3.81,-4.97 1.96,-1.13 4.18,-1.36 6.2,-0.82 2.02,0.54 3.84,1.86 4.97,3.81 1.13,1.96 1.36,4.18 0.82,6.2 -0.54,2.02 -1.86,3.84 -3.81,4.97 -1.96,1.13 -4.18,1.36 -6.2,0.82 -2.02,-0.54 -3.84,-1.86 -4.97,-3.81zm-28.11 -12.23l3.95 0c0.85,0 1.54,0.69 1.54,1.54l0 4.74 4.74 0c0.85,0 1.54,0.69 1.54,1.54l0 3.95c0,0.85 -0.69,1.54 -1.54,1.54l-4.74 0 0 4.74c0,0.85 -0.69,1.54 -1.54,1.54l-3.95 0c-0.85,0 -1.54,-0.69 -1.54,-1.54l0 -4.74 -4.74 0c-0.85,0 -1.54,-0.69 -1.54,-1.54l0 -3.95c0,-0.85 0.69,-1.54 1.54,-1.54l4.74 0 0 -4.74c0,-0.85 0.69,-1.54 1.54,-1.54zm-13.83 -19.02c2.26,0 4.3,0.92 5.78,2.4 1.48,1.48 2.4,3.53 2.4,5.78 0,2.25 -0.92,4.3 -2.4,5.78 -1.48,1.48 -3.53,2.4 -5.78,2.4 -2.25,0 -4.3,-0.92 -5.78,-2.4 -1.48,-1.48 -2.4,-3.53 -2.4,-5.78 0,-2.26 0.92,-4.3 2.4,-5.78l0.03 -0.02c1.48,-1.47 3.51,-2.37 5.76,-2.37z"/></g></svg>