<svg width="24" height="24" viewBox="0 0 24 24" fill="none" xmlns="http://www.w3.org/2000/svg">
  <path fill-rule="evenodd" clip-rule="evenodd"
    d="M4 3C3.44772 3 3 3.44772 3 4V17C3 17.5523 3.44772 18 4 18H9C9.26522 18 9.51957 18.1054 9.70711 18.2929L12 20.5858L14.2929 18.2929C14.4804 18.1054 14.7348 18 15 18H20C20.5523 18 21 17.5523 21 17V4C21 3.44772 20.5523 3 20 3H4ZM1 4C1 2.34315 2.34315 1 4 1H20C21.6569 1 23 2.34315 23 4V17C23 18.6569 21.6569 20 20 20H15.4142L13.4142 22C12.6332 22.7811 11.3668 22.781 10.5858 22L8.58579 20H4C2.34315 20 1 18.6569 1 17V4ZM7 8C7 7.44772 7.44772 7 8 7H11C11.5523 7 12 7.44772 12 8C12 8.55228 11.5523 9 11 9H8C7.44772 9 7 8.55228 7 8ZM7 12C7 11.4477 7.44772 11 8 11H16C16.5523 11 17 11.4477 17 12C17 12.5523 16.5523 13 16 13H8C7.44772 13 7 12.5523 7 12Z"
    fill="#ED4349"></path>
</svg>