<svg xmlns:dc="http://purl.org/dc/elements/1.1/" xmlns:cc="http://creativecommons.org/ns#"
  xmlns:rdf="http://www.w3.org/1999/02/22-rdf-syntax-ns#" xmlns:svg="http://www.w3.org/2000/svg"
  xmlns="http://www.w3.org/2000/svg"
  xmlns:sodipodi="http://sodipodi.sourceforge.net/DTD/sodipodi-0.dtd"
  xmlns:inkscape="http://www.inkscape.org/namespaces/inkscape" width="64" height="64"
  viewBox="0 0 16.933333 16.933334" version="1.1" id="svg8"
  inkscape:version="0.92.5 (2060ec1f9f, 2020-04-08)" sodipodi:docname="12-Communication.svg"
  inkscape:export-filename="/home/wanzabuyumna/@WANZ_DESIGN/NICON STUDIO MAGANG/Style Line/Style Line/Icon 8/Icon 8.png"
  inkscape:export-xdpi="96" inkscape:export-ydpi="96">
  <defs id="defs2"></defs>
  <sodipodi:namedview id="base" pagecolor="#ffffff" bordercolor="#959595" borderopacity="1"
    inkscape:pageopacity="0" inkscape:pageshadow="2" inkscape:zoom="2.8284271"
    inkscape:cx="-19.477629" inkscape:cy="-9.4035055" inkscape:document-units="px"
    inkscape:current-layer="layer1" inkscape:document-rotation="0" showgrid="false" units="px"
    inkscape:window-width="1920" inkscape:window-height="1056" inkscape:window-x="0"
    inkscape:window-y="0" inkscape:window-maximized="1" inkscape:pagecheckerboard="0"
    inkscape:snap-global="false">
    <inkscape:grid type="xygrid" id="grid822"></inkscape:grid>
  </sodipodi:namedview>
  <metadata id="metadata5">
    <rdf:rdf>
      <cc:work rdf:about="">
        <dc:format>image/svg+xml</dc:format>
        <dc:type rdf:resource="http://purl.org/dc/dcmitype/StillImage"></dc:type>
      </cc:work>
    </rdf:rdf>
  </metadata>
  <g inkscape:label="12-Communication" inkscape:groupmode="layer" id="layer1">
    <path
      style="color:#000000;font-style:normal;font-variant:normal;font-weight:normal;font-stretch:normal;font-size:medium;line-height:normal;font-family:sans-serif;font-variant-ligatures:normal;font-variant-position:normal;font-variant-caps:normal;font-variant-numeric:normal;font-variant-alternates:normal;font-feature-settings:normal;text-indent:0;text-align:start;text-decoration:none;text-decoration-line:none;text-decoration-style:solid;text-decoration-color:#000000;letter-spacing:normal;word-spacing:normal;text-transform:none;writing-mode:lr-tb;direction:ltr;text-orientation:mixed;dominant-baseline:auto;baseline-shift:baseline;text-anchor:start;white-space:normal;shape-padding:0;clip-rule:nonzero;display:inline;overflow:visible;visibility:visible;opacity:1;isolation:auto;mix-blend-mode:normal;color-interpolation:sRGB;color-interpolation-filters:linearRGB;solid-color:#000000;solid-opacity:1;vector-effect:none;fill:#000000;fill-opacity:1;fill-rule:nonzero;stroke:none;stroke-width:1.99999988;stroke-linecap:round;stroke-linejoin:round;stroke-miterlimit:4;stroke-dasharray:none;stroke-dashoffset:0;stroke-opacity:1;color-rendering:auto;image-rendering:auto;shape-rendering:auto;text-rendering:auto;enable-background:accumulate"
      d="M 32 2 C 29.230892 2 26.998047 4.2465137 26.998047 6.9960938 C 26.998047 8.0923381 27.343472 9.0982726 27.943359 9.9257812 C 26.140374 11.283671 25 13.507067 25 16.003906 L 25 17 C 25 18.672097 26.353272 19.998549 27.998047 20 C 30.746935 19.9983 33.447561 20.0031 36.001953 20 C 37.64669 19.9985 39 18.672097 39 17 L 39 16.003906 C 39 13.507067 37.859591 11.283671 36.056641 9.9257812 C 36.656603 9.0982726 37.001953 8.0923381 37.001953 6.9960938 C 37.001953 4.2465137 34.769109 2 32 2 z M 29.458984 11.304688 C 30.198071 11.738555 31.071559 12.001953 32 12.001953 C 32.928441 12.001953 33.80189 11.738559 34.541016 11.304688 C 35.986192 12.220913 37 13.964423 37 16.003906 L 37 17 C 37 17.54017 36.573191 17.999493 36.001953 18 C 33.252991 17.9983 30.553196 18.004913 27.998047 18 C 27.426771 17.999493 27 17.54017 27 17 L 27 16.003906 C 27 13.964423 28.013655 12.220913 29.458984 11.304688 z M 20.912109 14.705078 C 20.754881 14.708471 20.601789 14.747994 20.462891 14.822266 C 14.539577 17.903638 10.094246 23.22353 8.1191406 29.601562 C 7.7205139 30.876166 9.6326232 31.473823 10.03125 30.199219 C 11.84856 24.330701 15.934649 19.428963 21.384766 16.59375 C 22.326284 16.110606 21.950723 14.703944 20.912109 14.705078 z M 42.970703 14.712891 C 41.992089 14.818986 41.719997 16.148216 42.615234 16.59375 C 48.063877 19.428248 52.150759 24.3248 53.96875 30.191406 C 54.362388 31.466104 56.274535 30.876261 55.880859 29.601562 C 53.905036 23.22561 49.460788 17.902864 43.539062 14.822266 C 43.361047 14.724644 43.172549 14.692175 42.970703 14.712891 z M 21.998047 25.998047 C 19.775912 25.998047 17.996094 27.801286 17.996094 30 L 17.996094 45 C 17.988497 45.897959 19.078823 46.348749 19.708984 45.708984 L 23.400391 42.003906 L 23.998047 42.003906 C 23.999147 44.221215 25.798034 46.003906 27.996094 46.003906 L 40.597656 46.003906 L 44.287109 49.708984 C 44.917232 50.348753 46.006047 49.897959 46 49 L 46 34 C 46 31.801286 44.222135 29.998047 42 29.998047 L 40.001953 29.998047 C 40.000853 27.800248 38.219518 25.998047 36.001953 25.998047 L 21.998047 25.998047 z M 40.001953 32 L 42 32 C 43.090091 32 44 32.874713 44 34 L 44 46.585938 L 41.71875 44.296875 C 41.531285 44.108088 41.275844 44.00218 41.009766 44.001953 L 27.996094 44.001953 C 26.871458 44.001953 26.001059 43.089277 26 42.003906 L 36.001953 42.003906 C 38.200662 42.003906 40.001953 40.220184 40.001953 38.001953 L 40.001953 32 z M 9 32.998047 C 6.2308914 32.998047 3.9980469 35.24456 3.9980469 37.994141 C 3.9980469 39.090385 4.3435106 40.096316 4.9433594 40.923828 C 3.1403737 42.281718 2 44.505114 2 47.001953 L 2 47.998047 C 2 49.67014 3.35331 50.996592 4.9980469 50.998047 C 7.746935 50.996346 10.447559 51.001146 13.001953 50.998047 C 14.64669 50.996546 16 49.67014 16 47.998047 L 16 47.001953 C 16 44.505114 14.859627 42.281718 13.056641 40.923828 C 13.656641 40.096316 14.001953 39.090385 14.001953 37.994141 C 14.001953 35.24456 11.769109 32.998047 9 32.998047 z M 55 32.998047 C 52.230891 32.998047 49.998047 35.244563 49.998047 37.994141 C 49.998047 39.090385 50.343511 40.096316 50.943359 40.923828 C 49.140374 42.281718 48 44.505114 48 47.001953 L 48 47.998047 C 48 49.67014 49.35331 50.996592 50.998047 50.998047 C 53.746935 50.996346 56.447559 51.001146 59.001953 50.998047 C 60.64669 50.996546 62 49.67014 62 47.998047 L 62 47.001953 C 62 44.505114 60.859626 42.281718 59.056641 40.923828 C 59.656641 40.096316 60.001953 39.090385 60.001953 37.994141 C 60.001953 35.244563 57.769109 32.998047 55 32.998047 z M 25 33 C 25.552294 32.999963 25.999999 33.447706 26 34 C 26.000025 34.552312 25.552312 35.000014 25 35 C 24.447721 34.999993 24 34.552279 24 34 C 24 33.447721 24.447721 33.00003 25 33 z M 29 33 C 29.552279 32.999984 29.999999 33.447721 30 34 C 30 34.55228 29.55228 34.999993 29 35 C 28.447706 35.000014 28 34.552294 28 34 C 28.000026 33.447724 28.447724 33.000009 29 33 z M 33 33 C 33.552279 32.999985 33.999999 33.447721 34 34 C 34 34.552279 33.552279 34.999993 33 35 C 32.44772 34.999993 32 34.55228 32 34 C 32.000026 33.447738 32.447738 33.00003 33 33 z M 6.4589844 42.302734 C 7.198071 42.736605 8.0715591 43 9 43 C 9.9284409 43 10.801929 42.736605 11.541016 42.302734 C 12.986194 43.21896 14 44.962471 14 47.001953 L 14 47.998047 C 14 48.538217 13.573229 48.99754 13.001953 48.998047 C 10.253028 48.996346 7.5531965 49.00296 4.9980469 48.998047 C 4.4267713 48.99754 4 48.538217 4 47.998047 L 4 47.001953 C 4 44.962471 5.0136553 43.21896 6.4589844 42.302734 z M 52.458984 42.302734 C 53.198071 42.736605 54.071559 43 55 43 C 55.928441 43 56.801929 42.736605 57.541016 42.302734 C 58.986231 43.21896 60 44.962471 60 47.001953 L 60 47.998047 C 60 48.538217 59.573229 48.99754 59.001953 48.998047 C 56.253027 48.996346 53.553234 49.00296 50.998047 48.998047 C 50.426809 48.99754 50 48.538217 50 47.998047 L 50 47.001953 C 50 44.962471 51.013655 43.21896 52.458984 42.302734 z M 15.634766 53.591797 C 14.767591 53.63889 14.344176 54.704534 15 55.333984 C 19.622437 59.620014 25.69624 62 32 62 C 38.289324 61.999996 44.345845 59.631812 48.964844 55.363281 C 49.949751 54.431843 48.586458 53.004736 47.609375 53.894531 C 43.359447 57.821967 37.786724 59.999996 32 60 C 26.199975 60 20.610486 57.808774 16.357422 53.865234 C 16.162776 53.680907 15.902773 53.582197 15.634766 53.591797 z "
      transform="scale(0.26458334)" id="path842"></path>
  </g>
</svg>