<svg version="1.1" id="Layer_1" xmlns="http://www.w3.org/2000/svg"
  xmlns:xlink="http://www.w3.org/1999/xlink" x="0px" y="0px" viewBox="0 0 491.8 491.8"
  style="enable-background:new 0 0 491.8 491.8;" xml:space="preserve">
  <style type="text/css">
    .st0{fill:#1A1A1A;}
    .st1{fill:#1B1B1B;}
    .st2{fill:#1C1C1C;}
    .st3{fill:#191919;}
    .st4{fill:#FEFEFE;}
    .st5{fill:#FBFBFB;}
    .st6{fill:#FDFDFD;}
    .st7{fill:#FCFCFC;}
    .st8{fill:#F4F4F4;}
    .st9{fill:#F8F8F8;}
    .st10{fill:#F9F9F9;}
    .st11{fill:#FAFAFA;}
    .st12{fill:#242424;}
    .st13{fill:#1E1E1E;}
    .st14{fill:#212121;}
    .st15{fill:#E8E8E8;}
    .st16{fill:#EBEBEB;}
    .st17{fill:#2E2E2E;}
    .st18{fill:#333333;}
    .st19{fill:#222222;}
    .st20{fill:#F6F6F6;}
    .st21{fill:#F7F7F7;}
    .st22{fill:#F5F5F5;}
    .st23{fill:#1D1D1D;}
    .st24{fill:#F0F0F0;}
    .st25{fill:#EDEDED;}
    .st26{fill:#E9E9E9;}
    .st27{fill:#EEEEEE;}
    .st28{fill:#F1F1F1;}
    .st29{fill:#E7E7E7;}
    .st30{fill:#F3F3F3;}
    .st31{fill:#32AADF;}
    .st32{fill:#E9585B;}
    .st33{fill:#2AB574;}
    .st34{fill:#F7AE3F;}
  </style>
  <g>
    <path class="st0" d="M476.3,379.3c0,2.6,0.1,5.3,0,7.9c-0.3,8.2,5,17.9,0.2,24c-4.6,5.9-14.1,8-21.6,11.6
      c-16,7.9-32.3,15.4-48.1,23.6c-5,2.6-7.9,1.9-12.1-1.6c-25.1-20.7-48.4-42.6-67.3-69.7c-18.8-27.1-42.3-51-64.9-75.2
      c-6.3-6.8-10.7-14.6-7.3-24.3c2.9-8.4,9.6-12.4,17.8-14.1c6.6-1.4,12.2,1.4,17.6,5c22.4,14.8,42.3,33,63.9,48.9
      c10.1,7.4,19.9,5.2,26-5.8c1.7-3,2-6.3,1.8-9.6c-1.3-24.8-1.6-49.8-4.4-74.4c-2.1-18.3-16.5-30.4-28.3-43.2
      c-8-8.7-17.5-16.1-26.4-24.2c-4.4-4-6.6-8.9-6.5-15c0.2-15.3,7.3-19.8,20.3-12.5c10.4,5.9,19.8,13.8,30.7,18.3
      c28.1,11.4,43.6,33.9,56.1,59.5c3.6,7.4,7.8,13.3,16.7,15.2c4.7,1,8.7,4.3,9.9,10.1c5.1,24.3,10.1,48.6,15.8,72.8
      C471.9,330.5,474.5,354.8,476.3,379.3z"></path>
    <path class="st0" d="M213.8,70.5c25,0.6,47.7,9.1,66.5,27c2.4,2.3,6.1,4,1.7,8.4c-3.7,3.7-5.5,3.5-9.3,0
      c-34.8-31.2-78.1-32.4-115.3-3.1c-4.3,3.4-6.2,2.8-9.6-0.6c-4.7-4.7,0.1-6.3,2.5-8.3C168.2,78.5,189.3,71.1,213.8,70.5z"></path>
    <path class="st0" d="M213.2,93.3c19.8-0.1,36.8,6.8,51.2,20.1c2.4,2.2,6.2,4,1.7,8.4c-3.7,3.6-5.5,3.5-9.3,0.1
      c-25-22.3-56.6-23.6-83.1-3.3c-4.5,3.4-6.8,3.3-10.3-0.8c-4.4-5.1,1.1-6.3,3.2-8.1C178.8,99.1,195.8,93.3,213.2,93.3z"></path>
    <path class="st0" d="M215.6,115.6c11,0.1,23.1,4.7,33.2,14c2.8,2.6,5.3,4.6,1,8.4c-3.3,2.9-4.7,3.6-8.5,0.2
      c-16.3-14.4-34.4-15.5-52.4-3c-4.8,3.4-6.7,1.4-9.6-1.6c-4.7-5,1-6.2,3.2-7.9C191.4,119.1,201.6,115.7,215.6,115.6z"></path>
    <path class="st2" d="M249.8,294.1c-12.7-12.2-13.9-26.9-4.6-37.7c9.3-10.7,23-11.9,36.7-2.1c-11.4,0-20.8,2.3-27.9,10.3
      C246.6,273,246.1,282.4,249.8,294.1z"></path>
    <g>
      <path class="st0" d="M165.2,247.1c-14.2-0.2-26.6,12.2-26.6,26.5c0,14.1,11.7,25.6,26,25.7c14.7,0.1,26.9-12,26.7-26.2
        C191.1,259.3,178.9,247.2,165.2,247.1z"></path>
      <path class="st0" d="M375.4,300.3c-0.4-10.6-0.1-21.2-0.1-31.8c-0.3,0-0.6,0-1,0c-0.6-10.9-1.4-21.8-1.9-32.8
        c-0.4-10.6-4.1-19.4-10.3-28.3c-10.7-15.2-24.8-26.6-38.1-39c-6.1-5.6-12.6-11-13.7-20c-0.6-5-3.6-4.3-7.2-3.5
        c-12.4,2.5-24.2,7-35.9,11.4c-33,12.4-66,12.5-99.3,1.5c-10.7-3.5-21.2-7.4-32-10.7c-22.7-7-38.7-1.9-53.5,16.7
        c-6.4,8.1-11.7,16.9-15.6,26.5c-21.4,52.7-33.2,107.4-34,164.4c-0.1,11.3,1.4,22.5,5.6,33.1c5,12.8,11.1,16.3,24.6,14.4
        c14.2-2.1,26-9.4,37.2-17.8c14.9-11.2,27.6-24.8,41.5-37.1c8.6-7.7,18.2-12.9,29.9-14.5c24.4-3.4,49-3,73.5-1.4
        c11.4,0.7,23.3,1.5,33.3,8.4c2.1,1.4,4.2,2.3,6.2,0c1.9-2.2,0.8-4.2-0.9-6.1c-6-6.7-11.9-13.3-17.8-20.1c-2-2.2-4.5-2.4-7.1-2.9
        c-19.4-3.8-31.7-18.5-31.7-37.5c0-18.4,12.6-33.5,31.1-37.1c17.6-3.5,34.9,6.4,42.1,24.1c1.2,3.1,2.2,6,5.1,8.2
        c17.6,13.5,35,27.3,52.6,40.8c2.9,2.2,5.6,6.3,10.3,3.1C372.5,309.3,375.7,306.2,375.4,300.3z M119,225.4
        c-7.8,1.5-12.2-0.6-10.8-9c1-5.9-1-8.8-7.3-7.7c-8.8,1.6-10.6-2.9-10.2-10.7c0.4-6.9-0.7-13.9,9.8-12.1c5.7,1,8.9-0.7,7.7-7.2
        c-1.8-9.3,3.5-10.1,10.9-9.8c6.8,0.3,13.7-0.8,11.6,9.8c-1.1,5.3,1,8.3,6.9,7.3c8.6-1.4,11.3,1.8,11.3,10.7
        c0,9.2-2,13.8-11.9,12.1c-4.4-0.7-7.2,0.9-6.3,5.9C132.4,224.8,127.6,227.5,119,225.4z M165,311.1c-21,0.1-38-16.7-38.1-37.6
        c-0.1-20.6,17.2-38,37.8-38.1c20.8-0.1,37.9,16.9,37.9,37.8C202.7,294.4,186.2,311.1,165,311.1z M194.4,230.7
        c-6.8-0.7-10.7-4.7-11-11.9c0.6-6.9,4.6-11.1,11.4-11.1c6.8,0,11.1,4.1,11.4,11.2C206.5,225.6,200.9,231.4,194.4,230.7z
         M235.4,230.9c-6.9-1-11.6-4.6-11.5-12c0.1-6.8,4.5-11.1,11.2-11.2c7.3-0.1,11.8,4.5,11.7,11.7C246.8,226.2,242.4,230,235.4,230.9
        z M282,209.1c-6.5-0.1-10.6-3.9-10.6-10.5c-0.1-6.7,4-10.6,10.5-10.7c6.5-0.1,10.1,4.1,10.9,10.8
        C291.8,204.7,288.7,209.2,282,209.1z M304.4,231.2c-6.6,0.1-10.7-3.6-11-10.2c-0.3-6.7,3.9-10.7,10.2-11
        c6.5-0.3,10.1,3.9,11.3,10.3C314,226.5,311.2,231.1,304.4,231.2z M305.1,186c-6.8-0.6-10.6-4.3-10.5-10.8
        c0.1-6.5,3.9-10.4,10.6-10.2c6.6,0.2,10.3,4,10.2,10.6C315.4,182.2,311.4,185.5,305.1,186z M327.4,208.1
        c-6.4,0.1-10.5-3.7-10.6-10.3c-0.1-6.6,3.7-10.1,10.2-10.8c6.6,0.4,10.6,3.8,10.7,10.5C337.7,203.9,333.8,208,327.4,208.1z"></path>
    </g>
  </g>
  </svg>